<svg xmlns="http://www.w3.org/2000/svg" width="22" height="22" fill="none"><path fill="#000" d="M11 0C8.013 0 7.637.013 6.464.066c-1.17.053-1.97.24-2.67.512a5.365 5.365 0 0 0-1.948 1.268 5.414 5.414 0 0 0-1.27 1.948c-.272.7-.457 1.499-.51 2.67C.012 7.637 0 8.014 0 10.999c0 2.989.013 3.363.066 4.536.053 1.17.238 1.971.51 2.67a5.383 5.383 0 0 0 1.27 1.948c.611.613 1.225.988 1.948 1.27.7.272 1.5.458 2.67.512C7.637 21.987 8.014 22 11 22c2.986 0 3.363-.013 4.536-.065 1.17-.054 1.97-.24 2.67-.512a5.381 5.381 0 0 0 1.948-1.27 5.381 5.381 0 0 0 1.27-1.948c.272-.699.457-1.499.51-2.67.054-1.173.066-1.547.066-4.536 0-2.987-.013-3.362-.066-4.535-.053-1.17-.238-1.97-.51-2.67a5.397 5.397 0 0 0-1.27-1.948A5.352 5.352 0 0 0 18.206.578c-.7-.272-1.5-.46-2.67-.512C14.363.012 13.986 0 11 0Zm0 1.983c2.938 0 3.284.01 4.445.063 1.073.05 1.655.228 2.043.378.513.2.88.438 1.265.824.386.386.624.75.824 1.265.15.387.33.97.378 2.042.054 1.161.063 1.509.063 4.446 0 2.936-.01 3.286-.063 4.444-.049 1.073-.228 1.655-.378 2.044-.2.512-.438.88-.824 1.264-.386.386-.75.624-1.265.824-.388.15-.97.33-2.043.378-1.16.054-1.508.065-4.445.065-2.937 0-3.286-.01-4.445-.065-1.073-.049-1.655-.228-2.043-.378a3.414 3.414 0 0 1-1.265-.824 3.393 3.393 0 0 1-.824-1.264c-.15-.389-.33-.97-.378-2.044-.054-1.158-.063-1.508-.063-4.444 0-2.937.01-3.285.063-4.446.049-1.073.228-1.654.378-2.042.2-.514.438-.88.824-1.265.386-.386.75-.624 1.264-.824.389-.15.97-.329 2.044-.378 1.16-.052 1.508-.063 4.445-.063Z"/><path fill="#000" d="M11 14.667a3.667 3.667 0 1 1 0-7.332 3.667 3.667 0 0 1 0 7.332Zm0-9.315A5.649 5.649 0 1 0 11 16.65 5.649 5.649 0 0 0 11 5.351ZM18.193 5.129a1.321 1.321 0 1 1-2.642-.002 1.321 1.321 0 0 1 2.642.002Z"/></svg>